<?xml version="1.0" encoding="UTF-8"?>
<!-- Generated by Pixelmator Pro 3.6.14 -->
<svg width="512" height="512" viewBox="0 0 512 512" xmlns="http://www.w3.org/2000/svg">
    <g id="Rounded-Rectangle">
        <path id="path1" fill="#3f3f3f" fill-opacity="0.5" fill-rule="evenodd" stroke="none" d="M 0 352 C 0 440.36557 71.634438 512 160 512 L 352 512 C 440.36557 512 512 440.36557 512 352 L 512 160 C 512 71.63443 440.36557 0 352 0 L 160 0 C 71.634438 0 0 71.63443 0 160 Z"/>
        <path id="path2" fill="#000000" fill-opacity="0.5" fill-rule="evenodd" stroke="none" d="M 160 512 C 71.634438 512 0 440.36557 0 352 L 0 160 C 0 71.63443 71.634438 0 160 0 L 352 0 C 440.36557 0 512 71.63443 512 160 L 512 352 C 512 440.36557 440.36557 512 352 512 L 160 512 Z M 60 352 L 60 160 C 60 104.771515 104.771523 60 160 60 L 352 60 C 407.228485 60 452 104.771515 452 160 L 452 352 C 452 407.228485 407.228485 452 352 452 L 160 452 C 104.771523 452 60 407.228485 60 352 Z"/>
    </g>
    <path id="Path" fill="none" stroke="#ffffff" stroke-width="50" d="M 115 252 L 212 349 L 397 164"/>
</svg>
